HIERARCHY
ROOT hip
{
  OFFSET 0 0 0
  CHANNELS 6 Xposition Yposition Zposition Zrotation Yrotation Xrotation
  JOINT abdomen
  {
    OFFSET 0 20.6881 -0.73152
    CHANNELS 3 Zrotation Xrotation Yrotation
    JOINT chest
    {
      OFFSET 0 11.7043 -0.48768
      CHANNELS 3 Zrotation Xrotation Yrotation
      JOINT neck
      {
        OFFSET 0 22.1894 -2.19456
        CHANNELS 3 Zrotation Xrotation Yrotation
        JOINT head
        {
          OFFSET -0.24384 7.07133 1.2192
          CHANNELS 3 Zrotation Xrotation Yrotation
          JOINT leftEye
          {
            OFFSET 4.14528 8.04674 8.04672
            CHANNELS 3 Zrotation Xrotation Yrotation
            End Site
            {
              OFFSET 1 0 0
            }
          }
          JOINT rightEye
          {
            OFFSET -3.6576 8.04674 8.04672
            CHANNELS 3 Zrotation Xrotation Yrotation
            End Site
            {
              OFFSET 1 0 0
            }
          }
        }
      }
      JOINT rCollar
      {
        OFFSET -2.68224 19.2634 -4.8768
        CHANNELS 3 Zrotation Xrotation Yrotation
        JOINT rShldr
        {
          OFFSET -8.77824 -1.95073 1.46304
          CHANNELS 3 Zrotation Xrotation Yrotation
          JOINT rForeArm
          {
            OFFSET -28.1742 -1.7115 0.48768
            CHANNELS 3 Zrotation Xrotation Yrotation
            JOINT rHand
            {
              OFFSET -22.5879 0.773209 7.07136
              CHANNELS 3 Zrotation Xrotation Yrotation
              JOINT rThumb1
              {
                OFFSET -1.2192 -0.487915 3.41376
                CHANNELS 3 Zrotation Xrotation Yrotation
                JOINT rThumb2
                {
                  OFFSET -3.37035 -0.52449 3.41376
                  CHANNELS 3 Zrotation Xrotation Yrotation
                  End Site
                  {
                    OFFSET -1.78271 -1.18214 1.43049
                  }
                }
              }
              JOINT rIndex1
              {
                OFFSET -7.75947 0.938293 5.60832
                CHANNELS 3 Zrotation Xrotation Yrotation
                JOINT rIndex2
                {
                  OFFSET -2.54057 -0.884171 1.56538
                  CHANNELS 3 Zrotation Xrotation Yrotation
                  End Site
                  {
                    OFFSET -1.62519 -0.234802 1.16502
                  }
                }
              }
              JOINT rMid1
              {
                OFFSET -8.24714 1.18213 3.41376
                CHANNELS 3 Zrotation Xrotation Yrotation
                JOINT rMid2
                {
                  OFFSET -3.10165 -0.590103 1.0647
                  CHANNELS 3 Zrotation Xrotation Yrotation
                  End Site
                  {
                    OFFSET -2.48547 -0.328903 0.83742
                  }
                }
              }
              JOINT rRing1
              {
                OFFSET -8.82822 0.546677 1.51678
                CHANNELS 3 Zrotation Xrotation Yrotation
                JOINT rRing2
                {
                  OFFSET -2.60934 -0.819778 -0.0198488
                  CHANNELS 3 Zrotation Xrotation Yrotation
                  End Site
                  {
                    OFFSET -2.33842 -0.294052 0.168128
                  }
                }
              }
              JOINT rPinky1
              {
                OFFSET -8.27202 -0.0477905 -0.4584
                CHANNELS 3 Zrotation Xrotation Yrotation
                JOINT rPinky2
                {
                  OFFSET -1.82734 -0.647385 -0.700984
                  CHANNELS 3 Zrotation Xrotation Yrotation
                  End Site
                  {
                    OFFSET -1.69225 -0.51767 -0.607171
                  }
                }
              }
            }
          }
        }
      }
      JOINT lCollar
      {
        OFFSET 2.68224 19.2634 -4.8768
        CHANNELS 3 Zrotation Xrotation Yrotation
        JOINT lShldr
        {
          OFFSET 8.77824 -1.95073 1.46304
          CHANNELS 3 Zrotation Xrotation Yrotation
          JOINT lForeArm
          {
            OFFSET 28.1742 -1.7115 0.48768
            CHANNELS 3 Zrotation Xrotation Yrotation
            JOINT lHand
            {
              OFFSET 22.5879 0.773209 7.07136
              CHANNELS 3 Zrotation Xrotation Yrotation
              JOINT lThumb1
              {
                OFFSET 1.2192 -0.487915 3.41376
                CHANNELS 3 Zrotation Xrotation Yrotation
                JOINT lThumb2
                {
                  OFFSET 3.37035 -0.52449 3.41376
                  CHANNELS 3 Zrotation Xrotation Yrotation
                  End Site
                  {
                    OFFSET 1.78271 -1.18214 1.43049
                  }
                }
              }
              JOINT lIndex1
              {
                OFFSET 7.75947 0.938293 5.60832
                CHANNELS 3 Zrotation Xrotation Yrotation
                JOINT lIndex2
                {
                  OFFSET 2.54057 -0.884171 1.56538
                  CHANNELS 3 Zrotation Xrotation Yrotation
                  End Site
                  {
                    OFFSET 1.62519 -0.234802 1.16502
                  }
                }
              }
              JOINT lMid1
              {
                OFFSET 8.24714 1.18213 3.41376
                CHANNELS 3 Zrotation Xrotation Yrotation
                JOINT lMid2
                {
                  OFFSET 3.10165 -0.590103 1.0647
                  CHANNELS 3 Zrotation Xrotation Yrotation
                  End Site
                  {
                    OFFSET 2.48547 -0.328903 0.83742
                  }
                }
              }
              JOINT lRing1
              {
                OFFSET 8.82822 0.546677 1.51678
                CHANNELS 3 Zrotation Xrotation Yrotation
                JOINT lRing2
                {
                  OFFSET 2.60934 -0.819778 -0.0198488
                  CHANNELS 3 Zrotation Xrotation Yrotation
                  End Site
                  {
                    OFFSET 2.33842 -0.294052 0.168128
                  }
                }
              }
              JOINT lPinky1
              {
                OFFSET 8.27202 -0.0477905 -0.4584
                CHANNELS 3 Zrotation Xrotation Yrotation
                JOINT lPinky2
                {
                  OFFSET 1.82734 -0.647385 -0.700984
                  CHANNELS 3 Zrotation Xrotation Yrotation
                  End Site
                  {
                    OFFSET 1.69225 -0.51767 -0.607171
                  }
                }
              }
            }
          }
        }
      }
    }
  }
  JOINT rButtock
  {
    OFFSET -8.77824 4.35084 1.2192
    CHANNELS 3 Zrotation Xrotation Yrotation
    JOINT rThigh
    {
      OFFSET 0 -1.70687 -2.19456
      CHANNELS 3 Zrotation Xrotation Yrotation
      JOINT rShin
      {
        OFFSET 0 -36.8199 0.73152
        CHANNELS 3 Zrotation Xrotation Yrotation
        JOINT rFoot
        {
          OFFSET 0.73152 -45.1104 -5.12064
          CHANNELS 3 Zrotation Xrotation Yrotation
          End Site
          {
            OFFSET -1.1221 -3.69964 12.103
          }
        }
      }
    }
  }
  JOINT lButtock
  {
    OFFSET 8.77824 4.35084 1.2192
    CHANNELS 3 Zrotation Xrotation Yrotation
    JOINT lThigh
    {
      OFFSET 0 -1.70687 -2.19456
      CHANNELS 3 Zrotation Xrotation Yrotation
      JOINT lShin
      {
        OFFSET 0 -36.8199 0.73152
        CHANNELS 3 Zrotation Xrotation Yrotation
        JOINT lFoot
        {
          OFFSET -0.73152 -45.1104 -5.12064
          CHANNELS 3 Zrotation Xrotation Yrotation
          End Site
          {
            OFFSET 1.1221 -3.69964 12.103
          }
        }
      }
    }
  }
}
MOTION
Frames:	4
Frame Time:	0.03333
-0.01720065748591352 62.012783285974 0.10830993820688876 -3.259127616882324 -1.964249849319458 8.773223876953125 -2.3327574729919434 14.29423999786377 3.7940175533294678 2.6648120880126953 -9.640628814697266 1.2033061981201172 -4.9184465408325195 14.4994478225708 -3.6649210453033447 8.908845901489258 -22.162778854370117 -5.304712772369385 0.03419927880167961 0.022001158446073532 -0.026538873091340065 0.014773745089769363 -0.004360710270702839 -0.04334293678402901 0.018473949283361435 0.03800146281719208 -0.058200396597385406 46.58454132080078 40.045101165771484 17.78217124938965 -25.646297454833984 -26.343473434448242 68.59123992919922 -1.536388635635376 -10.06162166595459 -1.529987096786499 0.012506983242928982 -0.030246341601014137 0.03191601485013962 -0.002604948589578271 0.024993613362312317 -0.017771288752555847 -0.0258820541203022 0.04688132926821709 -0.02912265993654728 7.701797008514404 5.485785484313965 0.3791157901287079 0.05913623794913292 0.015355155803263187 0.0004770061350427568 2.9496402740478516 0.9182510375976562 0.07587666809558868 -0.10172247886657715 -0.012241206131875515 0.023158496245741844 10.303282737731934 0.7405893206596375 0.02189665473997593 0.03135877475142479 -0.08017414063215256 0.015607289038598537 2.2511024475097656 -0.691165566444397 -0.24147196114063263 -0.011610712856054306 -0.0007337626884691417 -0.008805125951766968 -54.8715705871582 40.361000061035156 -25.520177841186523 24.812877655029297 -23.48659324645996 -65.32584381103516 1.8304224014282227 -14.440674781799316 1.9705173969268799 -0.023967094719409943 -0.0320250540971756 -0.007773103658109903 -0.03305894136428833 0.017967965453863144 -0.0037762096617370844 -0.018586277961730957 -0.07339553534984589 -0.0181040707975626 -7.6707892417907715 5.508349418640137 -0.38718295097351074 0.01538932416588068 -0.0024216962046921253 -0.016307100653648376 -2.876845359802246 0.9818280339241028 -0.1194530501961708 -0.05526285991072655 -0.05576620250940323 -0.02868843637406826 -10.258219718933105 0.7140518426895142 -0.019160006195306778 -0.06500169634819031 -0.007007535547018051 0.017610963433980942 -2.176950454711914 -0.7367568016052246 0.2551872134208679 0.035080328583717346 0.027796009555459023 -0.01580536924302578 -24.778732299804688 -41.791717529296875 -18.741487503051758 -1.3238266706466675 65.08960723876953 2.4262287616729736 -4.58323335647583 -11.702348709106445 -9.860467910766602 0.0316176675260067 -0.048657406121492386 -0.04793886840343475 30.132644653320312 -42.78392028808594 20.988645553588867 1.3329359292984009 65.98873138427734 -2.4495112895965576 4.906868934631348 -11.545458793640137 13.01213550567627
-0.053189244387828044 62.6253692922541 0.19117341969151322 -3.270382881164551 -1.861532211303711 9.05587387084961 -2.265746593475342 14.082249641418457 3.651583194732666 2.6884663105010986 -9.52737808227539 1.116991400718689 -4.923203945159912 14.504631996154785 -3.632596015930176 8.861109733581543 -22.098304748535156 -5.237007141113281 0.06830444931983948 0.02528713271021843 -0.056532591581344604 0.018732799217104912 0.0006749272579327226 -0.04007107391953468 0.08574613183736801 0.056301988661289215 -0.07588285952806473 46.55101776123047 40.147987365722656 17.943906784057617 -25.63484001159668 -26.345970153808594 68.54925537109375 -1.5440707206726074 -10.126530647277832 -1.5671316385269165 0.00701639149338007 -0.05183512344956398 0.04137338697910309 -0.016084574162960052 0.017793985083699226 -0.029718244448304176 -0.034239932894706726 0.0860738679766655 -0.028821159154176712 7.6819257736206055 5.522800922393799 0.3340621292591095 0.09348582476377487 0.0731232613325119 0.00994888972491026 2.953944206237793 0.8762116432189941 0.04412751644849777 -0.15691794455051422 -0.02941678836941719 0.007105955854058266 10.322530746459961 0.7539448142051697 -0.007261026185005903 0.05763288959860802 -0.08452935516834259 0.06355700641870499 2.270393133163452 -0.6788331270217896 -0.25917959213256836 -0.04401133954524994 0.00827440619468689 -0.009645606391131878 -54.92789840698242 40.493385314941406 -25.413599014282227 24.774320602416992 -23.554080963134766 -65.5312271118164 1.7436811923980713 -14.315570831298828 1.913448452949524 -0.0536995530128479 -0.04284863919019699 -0.042534224689006805 -0.08518152683973312 0.035489197820425034 -0.01698758266866207 -0.025736935436725616 -0.1126931831240654 -0.014706497080624104 -7.613872528076172 5.520426273345947 -0.36836373805999756 0.017869947478175163 -0.020380167290568352 -0.007055987138301134 -2.873708724975586 0.9574083089828491 -0.1369350701570511 -0.08026286214590073 -0.09126220643520355 -0.04069477692246437 -10.244451522827148 0.7169057130813599 -0.03298034891486168 -0.10775280743837357 0.0031265546567738056 0.0027408706955611706 -2.1340761184692383 -0.7375195622444153 0.2997990548610687 0.053296320140361786 0.04504728317260742 -0.01801469177007675 -24.87021255493164 -41.874446868896484 -18.941865921020508 -1.337119221687317 65.11750030517578 2.39548397064209 -4.493716239929199 -11.480016708374023 -9.79340934753418 -0.006515049375593662 -0.10312053561210632 -0.05000991001725197 30.10740089416504 -42.7396240234375 20.93048858642578 1.2425493001937866 65.73483276367188 -2.403923511505127 4.897917747497559 -11.3114013671875 12.996819496154785
-0.043293047332420044 73.02196905814569 -0.46066883203897424 174.86056518554688 -6.178459644317627 177.4116973876953 -7.972165107727051 15.113380432128906 -1.106698989868164 5.193345546722412 -9.732748985290527 -0.20272353291511536 -4.5385565757751465 13.74718952178955 -0.9257603287696838 5.3204026222229 -21.833194732666016 -2.5688395500183105 0.2124820053577423 0.08700382709503174 -0.14601564407348633 0.0959123820066452 -0.11840575933456421 -0.1664137840270996 -0.03586254641413689 0.1270655244588852 -0.011292142793536186 46.832637786865234 38.177032470703125 19.566448211669922 -27.400117874145508 -46.848514556884766 94.52448272705078 -4.771829605102539 -52.746192932128906 -9.838573455810547 0.08192230761051178 -0.06839818507432938 0.1618211418390274 0.018384726718068123 -0.2034485638141632 0.23866645991802216 0.05867355689406395 0.12026085704565048 -0.2810685634613037 8.020249366760254 5.5340399742126465 0.1870364397764206 -0.2177901417016983 0.06949648261070251 -0.06208273768424988 3.0247437953948975 0.36270466446876526 0.007658709771931171 -0.09521143138408661 0.0009702898096293211 -0.041855428367853165 10.287989616394043 0.8211355805397034 0.052774474024772644 0.11486929655075073 -0.16682235896587372 0.22296029329299927 2.2813425064086914 -0.6074080467224121 -0.26313695311546326 -0.015462077222764492 -0.32888704538345337 0.16440322995185852 -33.942684173583984 40.09169006347656 -55.3662223815918 23.93656349182129 -18.575546264648438 -54.3033332824707 0.8574966788291931 4.547739028930664 -0.36874186992645264 -0.24433203041553497 -0.06743389368057251 -0.10515020042657852 -0.5327757596969604 -0.015240742824971676 0.17899978160858154 -0.1311238706111908 -0.5071572661399841 -0.2188381403684616 -7.2881035804748535 5.615644931793213 -0.37737277150154114 0.19013254344463348 -0.2943020761013031 0.13303408026695251 -2.95285701751709 0.6509305834770203 -0.04751609265804291 -0.13958202302455902 -0.3503134250640869 -0.01945442147552967 -10.411843299865723 0.7699429392814636 0.1250285506248474 -0.37810781598091125 -0.27524086833000183 0.1698506772518158 -2.2394559383392334 -0.7776445746421814 0.2524016201496124 -0.14738969504833221 -0.14675341546535492 0.12445201724767685 -36.54169845581055 -64.68966674804688 -35.9562873840332 -4.976048946380615 77.78273010253906 4.884605407714844 0.04457293078303337 -1.6452515125274658 4.547593593597412 -0.08784652501344681 -0.25827816128730774 -0.29660069942474365 2.172192335128784 -21.602399826049805 14.068263053894043 0.2200971245765686 56.86423110961914 -2.3845577239990234 14.059226036071777 -18.900346755981445 26.98467445373535
-0.12564004912191518 74.20751914333066 -1.9762489621638992 175.8764190673828 -13.406933784484863 -176.60968017578125 -8.287705421447754 13.927233695983887 1.461226463317871 5.280202865600586 -8.512101173400879 0.8053191900253296 -4.792106628417969 12.780611038208008 -2.4872376918792725 3.9422409534454346 -23.755451202392578 -4.805810451507568 0.032599858939647675 -0.16434217989444733 -0.4131196141242981 -0.01291181892156601 -0.34111806750297546 -0.1838114708662033 -0.2891041338443756 0.11841895431280136 -0.06040605902671814 43.777259826660156 24.806360244750977 29.984010696411133 -25.87834930419922 -43.722801208496094 94.2614974975586 -3.3061563968658447 -41.925750732421875 -7.168420314788818 0.1019238531589508 0.011581774801015854 0.07772817462682724 -0.5366027355194092 -0.30454155802726746 0.05125919729471207 0.35397446155548096 0.23406004905700684 -0.3262743055820465 7.851859092712402 5.459353446960449 0.36073359847068787 -0.1626712679862976 -0.10517342388629913 -0.052566856145858765 2.787973165512085 1.0592724084854126 0.13896040618419647 -0.46349048614501953 0.24129371345043182 0.019465425983071327 10.456997871398926 0.36566394567489624 0.19492430984973907 0.09824546426534653 0.015752552077174187 0.2176707237958908 2.045619487762451 -0.6517437100410461 -0.3991986811161041 0.5678014755249023 -0.044583503156900406 0.018864411860704422 -34.31352233886719 50.354610443115234 -51.20847702026367 25.091575622558594 -21.826417922973633 -57.29199981689453 0.48722243309020996 -4.08449649810791 0.17442657053470612 0.0655640959739685 -0.10255254805088043 0.18973346054553986 -0.25622180104255676 -0.2981903553009033 -0.42985987663269043 0.2930082678794861 -0.5910906791687012 0.10762590914964676 -7.5517497062683105 5.456268310546875 0.0964852124452591 0.07183626294136047 -0.2503032088279724 0.2030557543039322 -3.416998863220215 0.9461323022842407 -0.20088189840316772 -0.19997406005859375 -0.1492055207490921 -0.18936103582382202 -10.635581970214844 0.5166468620300293 0.32415059208869934 -0.17065370082855225 -0.8147138357162476 0.05228216201066971 -1.8909494876861572 -0.5706155896186829 0.3419416844844818 -0.08667478710412979 0.3144068717956543 0.10990981757640839 -27.272001266479492 -57.97314453125 -26.5277042388916 -1.7063589096069336 61.88179397583008 2.051396369934082 -2.4040324687957764 7.079883575439453 2.8544394969940186 -0.29600366950035095 -0.4539245069026947 -0.28451287746429443 -1.1167234182357788 -16.888004302978516 11.44175910949707 -0.6058469414710999 56.672340393066406 -1.5049161911010742 13.926651000976562 -18.63934898376465 26.154191970825195
